<svg xmlns="http://www.w3.org/2000/svg" width="110" height="101" viewBox="0 0 110 101" class="css-1j8o68f"><defs id="SvgjsDefs1642"></defs><g id="SvgjsG1643" featurekey="symbolGroupContainer" transform="matrix(1,0,0,1,0,0)" fill="#f25d5d"><rect xmlns="http://www.w3.org/2000/svg" width="110" height="101" rx="10" ry="10"></rect></g><g id="SvgjsG1644" featurekey="symbolFeature-0" transform="matrix(0.6999946594645732,0,0,0.6999946594645732,20.00024866868081,20.00006542155898)" fill="#ffffff"><path xmlns="http://www.w3.org/2000/svg" fill="#ffffff" d="M99.867,30.901c-0.398-1.286-2.345-5.825-10.789-9.632l-1.781,6.769c1.665,0.781,5.48,2.077,5.035,4.726  c-0.271,1.602-2.479,3.051-3.853,3.625c-1.945,0.812-4.149,0.997-6.234,1.078c0,0,5.162-24.803,5.052-24.658  c0.422-2.125,0.127-3.5-0.939-4.489C81.546,3.868,60.844-0.022,43.222,0C25.673,0.023,9.638,3.709,4.101,6.341  c-1.552,0.736-4.606,2.201-4.03,5.502c0.059,0.333,12.123,61.269,12.123,61.269c1.103,3.583,4.197,6.316,7.269,8.25  c4.722,2.974,10.249,4.576,15.738,5.354c6.789,0.966,13.861,0.794,20.566-0.677c5.023-1.102,10.067-2.991,14.141-6.203  c2.204-1.739,4.257-3.986,5.099-6.724l4.642-22.854c-19.119,0.016-36.231-5.772-44.844-8.903c-5.752,3.681-13.186,0.54-14.195-5.75  c-0.889-5.535,4.219-10.459,9.473-10.222c-3.857,0.324-6.476,4.299-5.253,7.972c1.317,3.955,6.343,5.435,9.591,2.801  c11.159,3.161,22.535,5.887,34.054,7.342c6.22,0.789,12.772,1.405,18.965,0.11c4.988-1.041,10.94-3.807,12.312-9.208  C100.038,33.26,100.078,32.06,99.867,30.901z M72.973,14.489c-6.969,1.978-14.114,2.763-21.213,3.122  c-12.916,0.652-26.35,0.417-39.008-3.561c-1.505-0.473-3.009-1.014-4.487-1.665c8.424-4.679,24.582-6.202,35.387-6.188  c11.185,0.013,32.344,3.053,36.04,5.839C77.5,13.079,75.238,13.846,72.973,14.489z"></path></g><g id="SvgjsG1645" featurekey="nameFeature-0" transform="matrix(0.007635919507043232,0,0,0.007635919507043232,129.98717165289787,49.914477695695375)" fill="#f25d5d"><path d="M16.08 30 l0 -10 l6 0 l0 18.96 c0 6.36 -4.56 10.24 -10.6 10.24 c-2.12 0 -4.24 -0.2 -6.28 -0.88 l0 -6.16 c1.72 0.92 4.04 1.24 5.96 1.24 c2.16 0 3.88 -0.64 4.68 -2.72 c0.16 -0.56 0.24 -1.16 0.24 -1.76 l0 -0.92 c-1.36 1.52 -3.12 2.2 -5.12 2.2 c-5.68 0 -9.28 -4.88 -9.28 -10.2 l0 -10 l6 0 l0 10 c0 2.72 1.08 4.64 4 4.64 c2.84 0 4.4 -1.88 4.4 -4.64 z M101.528 34.64 c2.92 0 4.6 -1.72 4.6 -4.64 s-1.68 -4.64 -4.6 -4.64 s-4.6 1.72 -4.6 4.64 s1.68 4.64 4.6 4.64 z M101.528 40.2 c-6.16 0 -10.6 -4.08 -10.6 -10.2 c0 -6.32 4.6 -10.2 10.6 -10.2 c6.2 0 10.6 4.08 10.6 10.2 c0 6.28 -4.64 10.2 -10.6 10.2 z M195.05599999999998 20 l6 0 l0 10 c0 6.12 -4.24 10.2 -10.2 10.2 c-6.12 0 -10.2 -4.28 -10.2 -10.2 l0 -10 l6 0 l0 10 c0 2.68 1.36 4.64 4.2 4.64 c2.92 0 4.2 -1.92 4.2 -4.64 l0 -10 z M282.344 20.68 l0 5.56 l-5.6 0 l0 3.76 c0 3.08 2.04 4.64 5 4.64 c0.36 0 0.68 -0.04 0.96 -0.08 s0.52 -0.08 0.8 -0.12 l0 5.56 c-0.36 0.04 -0.64 0.12 -0.84 0.16 c-0.24 0.04 -0.64 0.04 -1.16 0.04 c-6.04 0 -10.76 -4.12 -10.76 -10.2 l0 -14.8 l6 0 l0 5.48 l5.6 0 z M365.632 20 l6 0 l0 10 c0 6.12 -4.24 10.2 -10.2 10.2 c-6.12 0 -10.2 -4.28 -10.2 -10.2 l0 -10 l6 0 l0 10 c0 2.68 1.36 4.64 4.2 4.64 c2.92 0 4.2 -1.92 4.2 -4.64 l0 -10 z M447.64000000000004 30 c0 2.96 1.48 4.64 4.48 4.64 c0.84 0 1.6 -0.12 2.2 -0.4 c1.12 -0.44 1.88 -1.28 2.28 -2.44 c0.16 -0.56 0.24 -1.16 0.24 -1.8 s-0.08 -1.24 -0.24 -1.8 c-0.44 -1.24 -1.12 -1.92 -2.28 -2.48 c-0.6 -0.24 -1.36 -0.36 -2.2 -0.36 c-3 0 -4.48 1.68 -4.48 4.64 z M441.64000000000004 12 l6 0 l0 10 c1.36 -1.56 3.2 -2.2 5.24 -2.2 c5.84 0 9.96 4.68 9.96 10.28 c0 6.32 -4.68 10.12 -10.64 10.12 c-6.2 0 -10.56 -4.08 -10.56 -10.2 l0 -18 z M537.048 27.6 c0.6 0.2 1.28 0.36 2 0.44 c0.72 0.12 1.4 0.16 2.04 0.16 c0.8 0 2.84 -0.16 2.84 -1.32 c0 -1.24 -1.76 -1.28 -2.64 -1.28 c-1.76 0 -3.28 0.4 -4.24 2 z M548.368 33.76 l0 5.6 c-2.24 0.52 -4.48 0.88 -6.8 0.88 c-6.36 0 -11.08 -3.72 -11.08 -10.16 c0 -6.36 4.56 -10.28 10.6 -10.28 c4.12 0 8.88 1.96 8.88 6.64 c0 4.64 -5.04 6.36 -8.92 6.36 c-1.48 0 -2.96 -0.4 -4.32 -0.96 c0.8 2.24 3.2 2.6 5.28 2.6 c1.08 0 2.16 -0.04 3.24 -0.2 c1 -0.08 2.16 -0.2 3.12 -0.48 z M707.784 30 c0 -3 -1.48 -4.64 -4.52 -4.64 c-0.84 0 -1.56 0.12 -2.16 0.36 c-1.12 0.52 -1.88 1.28 -2.24 2.48 c-0.2 0.56 -0.28 1.16 -0.28 1.8 s0.08 1.24 0.28 1.8 c0.32 1.16 1.16 2 2.24 2.44 c0.6 0.28 1.32 0.4 2.16 0.4 c3.04 0 4.52 -1.64 4.52 -4.64 z M707.784 22 l0 -10 l6 0 l0 18 c0 6.36 -4.52 10.2 -10.56 10.2 c-6.16 0 -10.64 -4 -10.64 -10.12 c0 -5.64 4.16 -10.28 9.84 -10.28 c2.12 0 3.96 0.6 5.36 2.2 z M789.192 27.6 c0.6 0.2 1.28 0.36 2 0.44 c0.72 0.12 1.4 0.16 2.04 0.16 c0.8 0 2.84 -0.16 2.84 -1.32 c0 -1.24 -1.76 -1.28 -2.64 -1.28 c-1.76 0 -3.28 0.4 -4.24 2 z M800.5120000000001 33.76 l0 5.6 c-2.24 0.52 -4.48 0.88 -6.8 0.88 c-6.36 0 -11.08 -3.72 -11.08 -10.16 c0 -6.36 4.56 -10.28 10.6 -10.28 c4.12 0 8.88 1.96 8.88 6.64 c0 4.64 -5.04 6.36 -8.92 6.36 c-1.48 0 -2.96 -0.4 -4.32 -0.96 c0.8 2.24 3.2 2.6 5.28 2.6 c1.08 0 2.16 -0.04 3.24 -0.2 c1 -0.08 2.16 -0.2 3.12 -0.48 z M870.1600000000001 39.36 l0 -5.6 c2.64 0.8 5.96 0.96 8.68 0.96 c1.08 0 1.92 -0.04 2.52 -0.16 c0.56 -0.08 0.84 -0.28 0.84 -0.56 c0 -0.12 -0.04 -0.2 -0.12 -0.32 c-0.4 -0.4 -1.28 -0.6 -1.8 -0.72 s-1.2 -0.28 -2.04 -0.44 c-0.68 -0.12 -1.48 -0.28 -2.4 -0.48 c-3.12 -0.68 -5.52 -2.44 -5.52 -5.8 c0 -4.96 4.84 -6.44 8.92 -6.44 c2.56 0 5.12 0.36 7.64 0.88 l0 5.64 c-2.52 -0.76 -5.36 -0.96 -8 -0.96 c-1.04 0 -1.76 0.04 -2.2 0.16 s-0.68 0.32 -0.68 0.56 c0 0.36 0.36 0.6 1.04 0.72 c0.68 0.16 1.64 0.36 2.8 0.56 c1.04 0.2 2.04 0.4 3 0.64 c2.96 0.76 5.08 2.36 5.08 5.56 c0 5.36 -5.4 6.68 -9.72 6.68 c-2.72 0 -5.4 -0.36 -8.04 -0.88 z M956.568 20 l6 0 l0 20 l-6 0 l0 -20 z M959.568 18.12 c-2.04 0 -3.48 -1.44 -3.48 -3.48 c0 -2.08 1.44 -3.44 3.48 -3.44 c2.08 0 3.44 1.36 3.44 3.44 c0 2.12 -1.32 3.48 -3.44 3.48 z M1044.9759999999999 28 c0 -2.12 -2.04 -2.64 -3.8 -2.64 s-3.8 0.52 -3.8 2.64 s2.04 2.64 3.8 2.64 s3.8 -0.52 3.8 -2.64 z M1043.376 43.8 c0 -1.36 -0.96 -1.88 -2.2 -1.88 s-2.2 0.52 -2.2 1.88 s0.96 1.88 2.2 1.88 s2.2 -0.52 2.2 -1.88 z M1048.776 43.8 c0 4.24 -3.96 6 -7.6 6 c-3.68 0 -7.6 -1.92 -7.6 -6 c0 -3 2.2 -5.04 5 -5.68 l0 -2.16 c-1.16 -0.2 -2.16 -0.56 -3.04 -1.08 c-2.6 -1.36 -4.16 -3.96 -4.16 -6.88 c0 -5.52 4.92 -8.2 9.8 -8.2 c2.16 0 4 0.4 5.52 1.24 c1.56 -0.76 3.08 -1.04 4.8 -1.04 l1.56 0 l0 4.84 l-0.88 0 l-0.88 0 c-0.28 0.04 -0.6 0.08 -0.92 0.16 c0.4 0.92 0.6 1.92 0.6 3 c0 4.28 -3.08 7.08 -7 7.92 l0 2.24 c2.68 0.76 4.8 2.72 4.8 5.64 z M1141.624 30 l0 10 l-6 0 l0 -10 c0 -2.76 -1.28 -4.64 -4.2 -4.64 c-2.88 0 -4.2 1.92 -4.2 4.64 l0 10 l-6 0 l0 -10 c0 -6.16 4.24 -10.2 10.2 -10.2 c6.2 0 10.2 4.24 10.2 10.2 z M1216.712 27.6 c0.6 0.2 1.28 0.36 2 0.44 c0.72 0.12 1.4 0.16 2.04 0.16 c0.8 0 2.84 -0.16 2.84 -1.32 c0 -1.24 -1.76 -1.28 -2.64 -1.28 c-1.76 0 -3.28 0.4 -4.24 2 z M1228.032 33.76 l0 5.6 c-2.24 0.52 -4.48 0.88 -6.8 0.88 c-6.36 0 -11.08 -3.72 -11.08 -10.16 c0 -6.36 4.56 -10.28 10.6 -10.28 c4.12 0 8.88 1.96 8.88 6.64 c0 4.64 -5.04 6.36 -8.92 6.36 c-1.48 0 -2.96 -0.4 -4.32 -0.96 c0.8 2.24 3.2 2.6 5.28 2.6 c1.08 0 2.16 -0.04 3.24 -0.2 c1 -0.08 2.16 -0.2 3.12 -0.48 z M1304.6 30 l0 10 l-6 0 l0 -9.96 c0 -6.64 4.88 -10.24 11.04 -10.24 c0.2 0 0.48 0 0.76 0.04 s0.6 0.12 0.88 0.16 l0 5.8 c-0.2 -0.04 -0.44 -0.08 -0.72 -0.12 s-0.52 -0.08 -0.72 -0.08 c-1 0 -1.8 0.12 -2.48 0.32 c-1.12 0.4 -2.12 1.16 -2.48 2.36 c-0.2 0.52 -0.28 1.12 -0.28 1.72 z"></path></g></svg>