<svg xmlns="http://www.w3.org/2000/svg" width="100" height="107.33770504183993" viewBox="0 0 100 107.33770504183993" class="css-1j8o68f"><defs id="SvgjsDefs1293"></defs><g id="SvgjsG1294" featurekey="symbolFeature-0" transform="matrix(0.999992370663676,0,0,0.999992370663676,0.0003552409725877946,0.00009345936996940636)" fill="#f25d5d"><path xmlns="http://www.w3.org/2000/svg" fill="#f25d5d" d="M99.867,30.901c-0.398-1.286-2.345-5.825-10.789-9.632l-1.781,6.769c1.665,0.781,5.48,2.077,5.035,4.726  c-0.271,1.602-2.479,3.051-3.853,3.625c-1.945,0.812-4.149,0.997-6.234,1.078c0,0,5.162-24.803,5.052-24.658  c0.422-2.125,0.127-3.5-0.939-4.489C81.546,3.868,60.844-0.022,43.222,0C25.673,0.023,9.638,3.709,4.101,6.341  c-1.552,0.736-4.606,2.201-4.03,5.502c0.059,0.333,12.123,61.269,12.123,61.269c1.103,3.583,4.197,6.316,7.269,8.25  c4.722,2.974,10.249,4.576,15.738,5.354c6.789,0.966,13.861,0.794,20.566-0.677c5.023-1.102,10.067-2.991,14.141-6.203  c2.204-1.739,4.257-3.986,5.099-6.724l4.642-22.854c-19.119,0.016-36.231-5.772-44.844-8.903c-5.752,3.681-13.186,0.54-14.195-5.75  c-0.889-5.535,4.219-10.459,9.473-10.222c-3.857,0.324-6.476,4.299-5.253,7.972c1.317,3.955,6.343,5.435,9.591,2.801  c11.159,3.161,22.535,5.887,34.054,7.342c6.22,0.789,12.772,1.405,18.965,0.11c4.988-1.041,10.94-3.807,12.312-9.208  C100.038,33.26,100.078,32.06,99.867,30.901z M72.973,14.489c-6.969,1.978-14.114,2.763-21.213,3.122  c-12.916,0.652-26.35,0.417-39.008-3.561c-1.505-0.473-3.009-1.014-4.487-1.665c8.424-4.679,24.582-6.202,35.387-6.188  c11.185,0.013,32.344,3.053,36.04,5.839C77.5,13.079,75.238,13.846,72.973,14.489z"></path></g></svg>