<svg xmlns="http://www.w3.org/2000/svg" width="200" height="132.61739482928533" viewBox="0 0 200 132.61739482928533" class="css-1j8o68f"><defs id="SvgjsDefs1001"></defs><g id="SvgjsG1007" featurekey="symbolFeature-0" transform="matrix(0.999992370663676,0,0,0.999992370663676,50.00035524097259,0.00009345936996940636)" fill="#f25d5d"><path xmlns="http://www.w3.org/2000/svg" fill="#f25d5d" d="M99.867,30.901c-0.398-1.286-2.345-5.825-10.789-9.632l-1.781,6.769c1.665,0.781,5.48,2.077,5.035,4.726  c-0.271,1.602-2.479,3.051-3.853,3.625c-1.945,0.812-4.149,0.997-6.234,1.078c0,0,5.162-24.803,5.052-24.658  c0.422-2.125,0.127-3.5-0.939-4.489C81.546,3.868,60.844-0.022,43.222,0C25.673,0.023,9.638,3.709,4.101,6.341  c-1.552,0.736-4.606,2.201-4.03,5.502c0.059,0.333,12.123,61.269,12.123,61.269c1.103,3.583,4.197,6.316,7.269,8.25  c4.722,2.974,10.249,4.576,15.738,5.354c6.789,0.966,13.861,0.794,20.566-0.677c5.023-1.102,10.067-2.991,14.141-6.203  c2.204-1.739,4.257-3.986,5.099-6.724l4.642-22.854c-19.119,0.016-36.231-5.772-44.844-8.903c-5.752,3.681-13.186,0.54-14.195-5.75  c-0.889-5.535,4.219-10.459,9.473-10.222c-3.857,0.324-6.476,4.299-5.253,7.972c1.317,3.955,6.343,5.435,9.591,2.801  c11.159,3.161,22.535,5.887,34.054,7.342c6.22,0.789,12.772,1.405,18.965,0.11c4.988-1.041,10.94-3.807,12.312-9.208  C100.038,33.26,100.078,32.06,99.867,30.901z M72.973,14.489c-6.969,1.978-14.114,2.763-21.213,3.122  c-12.916,0.652-26.35,0.417-39.008-3.561c-1.505-0.473-3.009-1.014-4.487-1.665c8.424-4.679,24.582-6.202,35.387-6.188  c11.185,0.013,32.344,3.053,36.04,5.839C77.5,13.079,75.238,13.846,72.973,14.489z"></path></g><g id="SvgjsG1008" featurekey="nameFeature-0" transform="matrix(0.677708803203233,0,0,0.677708803203233,-0.7319254557544133,98.86749694681512)" fill="#f25d5d"><path d="M1.08 39.36 l0 -5.6 c2.64 0.8 5.96 0.96 8.68 0.96 c1.08 0 1.92 -0.04 2.52 -0.16 c0.56 -0.08 0.84 -0.28 0.84 -0.56 c0 -0.12 -0.04 -0.2 -0.12 -0.32 c-0.4 -0.4 -1.28 -0.6 -1.8 -0.72 s-1.2 -0.28 -2.04 -0.44 c-0.68 -0.12 -1.48 -0.28 -2.4 -0.48 c-3.12 -0.68 -5.52 -2.44 -5.52 -5.8 c0 -4.96 4.84 -6.44 8.92 -6.44 c2.56 0 5.12 0.36 7.64 0.88 l0 5.64 c-2.52 -0.76 -5.36 -0.96 -8 -0.96 c-1.04 0 -1.76 0.04 -2.2 0.16 s-0.68 0.32 -0.68 0.56 c0 0.36 0.36 0.6 1.04 0.72 c0.68 0.16 1.64 0.36 2.8 0.56 c1.04 0.2 2.04 0.4 3 0.64 c2.96 0.76 5.08 2.36 5.08 5.56 c0 5.36 -5.4 6.68 -9.72 6.68 c-2.72 0 -5.4 -0.36 -8.04 -0.88 z M35.436 20.68 l0 5.56 l-5.6 0 l0 3.76 c0 3.08 2.04 4.64 5 4.64 c0.36 0 0.68 -0.04 0.96 -0.08 s0.52 -0.08 0.8 -0.12 l0 5.56 c-0.36 0.04 -0.64 0.12 -0.84 0.16 c-0.24 0.04 -0.64 0.04 -1.16 0.04 c-6.04 0 -10.76 -4.12 -10.76 -10.2 l0 -14.8 l6 0 l0 5.48 l5.6 0 z M50.992 34.64 c2.92 0 4.6 -1.72 4.6 -4.64 s-1.68 -4.64 -4.6 -4.64 s-4.6 1.72 -4.6 4.64 s1.68 4.64 4.6 4.64 z M50.992 40.2 c-6.16 0 -10.6 -4.08 -10.6 -10.2 c0 -6.32 4.6 -10.2 10.6 -10.2 c6.2 0 10.6 4.08 10.6 10.2 c0 6.28 -4.64 10.2 -10.6 10.2 z M73.108 30 l0 10 l-6 0 l0 -9.96 c0 -6.64 4.88 -10.24 11.04 -10.24 c0.2 0 0.48 0 0.76 0.04 s0.6 0.12 0.88 0.16 l0 5.8 c-0.2 -0.04 -0.44 -0.08 -0.72 -0.12 s-0.52 -0.08 -0.72 -0.08 c-1 0 -1.8 0.12 -2.48 0.32 c-1.12 0.4 -2.12 1.16 -2.48 2.36 c-0.2 0.52 -0.28 1.12 -0.28 1.72 z M99.10400000000001 30 c-0.16 -2.92 -1.48 -4.64 -4.52 -4.64 c-0.84 0 -1.56 0.12 -2.16 0.36 c-1.84 0.84 -2.52 2.4 -2.52 4.32 c0 0.64 0.08 1.24 0.28 1.76 c0.6 2.08 2.4 2.84 4.4 2.84 c3.04 0 4.52 -1.64 4.52 -4.64 z M106.70400000000001 40 l-6 0 c-0.4 -1 -0.76 -2 -1 -3.04 c-1.36 2.24 -3.44 3.24 -6 3.24 c-5.72 0 -9.8 -4.8 -9.8 -10.28 c0 -6.32 4.72 -10.12 10.68 -10.12 c6.36 0 10.36 4.08 10.52 10.2 c0.04 0.52 0.04 1.12 0.04 1.84 c0 2.8 0.44 5.6 1.56 8.16 z M124.62 28 c0 -2.12 -2.04 -2.64 -3.8 -2.64 s-3.8 0.52 -3.8 2.64 s2.04 2.64 3.8 2.64 s3.8 -0.52 3.8 -2.64 z M123.02 43.8 c0 -1.36 -0.96 -1.88 -2.2 -1.88 s-2.2 0.52 -2.2 1.88 s0.96 1.88 2.2 1.88 s2.2 -0.52 2.2 -1.88 z M128.42000000000002 43.8 c0 4.24 -3.96 6 -7.6 6 c-3.68 0 -7.6 -1.92 -7.6 -6 c0 -3 2.2 -5.04 5 -5.68 l0 -2.16 c-1.16 -0.2 -2.16 -0.56 -3.04 -1.08 c-2.6 -1.36 -4.16 -3.96 -4.16 -6.88 c0 -5.52 4.92 -8.2 9.8 -8.2 c2.16 0 4 0.4 5.52 1.24 c1.56 -0.76 3.08 -1.04 4.8 -1.04 l1.56 0 l0 4.84 l-0.88 0 l-0.88 0 c-0.28 0.04 -0.6 0.08 -0.92 0.16 c0.4 0.92 0.6 1.92 0.6 3 c0 4.28 -3.08 7.08 -7 7.92 l0 2.24 c2.68 0.76 4.8 2.72 4.8 5.64 z M142.45600000000002 27.6 c0.6 0.2 1.28 0.36 2 0.44 c0.72 0.12 1.4 0.16 2.04 0.16 c0.8 0 2.84 -0.16 2.84 -1.32 c0 -1.24 -1.76 -1.28 -2.64 -1.28 c-1.76 0 -3.28 0.4 -4.24 2 z M153.776 33.76 l0 5.6 c-2.24 0.52 -4.48 0.88 -6.8 0.88 c-6.36 0 -11.08 -3.72 -11.08 -10.16 c0 -6.36 4.56 -10.28 10.6 -10.28 c4.12 0 8.88 1.96 8.88 6.64 c0 4.64 -5.04 6.36 -8.92 6.36 c-1.48 0 -2.96 -0.4 -4.32 -0.96 c0.8 2.24 3.2 2.6 5.28 2.6 c1.08 0 2.16 -0.04 3.24 -0.2 c1 -0.08 2.16 -0.2 3.12 -0.48 z M167.012 30 c0 2.96 1.48 4.64 4.48 4.64 c0.84 0 1.6 -0.12 2.2 -0.4 c1.12 -0.44 1.88 -1.28 2.28 -2.44 c0.16 -0.56 0.24 -1.16 0.24 -1.8 s-0.08 -1.24 -0.24 -1.8 c-0.44 -1.24 -1.12 -1.92 -2.28 -2.48 c-0.6 -0.24 -1.36 -0.36 -2.2 -0.36 c-3 0 -4.48 1.68 -4.48 4.64 z M161.012 12 l6 0 l0 10 c1.36 -1.56 3.2 -2.2 5.24 -2.2 c5.84 0 9.96 4.68 9.96 10.28 c0 6.32 -4.68 10.12 -10.64 10.12 c-6.2 0 -10.56 -4.08 -10.56 -10.2 l0 -18 z M201.76799999999997 20 l6 0 l0 10 c0 6.12 -4.24 10.2 -10.2 10.2 c-6.12 0 -10.2 -4.28 -10.2 -10.2 l0 -10 l6 0 l0 10 c0 2.68 1.36 4.64 4.2 4.64 c2.92 0 4.2 -1.92 4.2 -4.64 l0 -10 z M230.164 33.4 l0 6 c-2.04 0.68 -4.16 0.88 -6.28 0.88 c-6.2 0 -10.6 -4.12 -10.6 -10.24 c0 -6.36 4.56 -10.24 10.6 -10.24 c2.12 0 4.24 0.2 6.28 0.88 l0 6 c-1.76 -0.92 -3.96 -1.16 -5.92 -1.16 c-1.32 0 -2.92 0.28 -3.84 1.32 c-0.84 0.84 -1.12 2.04 -1.12 3.16 c0 0.64 0.08 1.24 0.28 1.76 c0.16 0.56 0.44 1.04 0.84 1.44 c0.88 1.08 2.52 1.36 3.84 1.36 c1.76 0 4.36 -0.32 5.92 -1.16 z M248.07999999999998 20 l6 0 l0 2 c0 3.04 -1.04 5.96 -3.28 8.04 l5.28 9.96 l-7.4 0 l-6.2 -11.84 l0 11.84 l-6 0 l0 -28 l6 0 l0 15.08 l0.92 0 c3.24 0 4.68 -2.16 4.68 -5.12 l0 -1.96 z M265.39599999999996 27.6 c0.6 0.2 1.28 0.36 2 0.44 c0.72 0.12 1.4 0.16 2.04 0.16 c0.8 0 2.84 -0.16 2.84 -1.32 c0 -1.24 -1.76 -1.28 -2.64 -1.28 c-1.76 0 -3.28 0.4 -4.24 2 z M276.716 33.76 l0 5.6 c-2.24 0.52 -4.48 0.88 -6.8 0.88 c-6.36 0 -11.08 -3.72 -11.08 -10.16 c0 -6.36 4.56 -10.28 10.6 -10.28 c4.12 0 8.88 1.96 8.88 6.64 c0 4.64 -5.04 6.36 -8.92 6.36 c-1.48 0 -2.96 -0.4 -4.32 -0.96 c0.8 2.24 3.2 2.6 5.28 2.6 c1.08 0 2.16 -0.04 3.24 -0.2 c1 -0.08 2.16 -0.2 3.12 -0.48 z M295.032 20.68 l0 5.56 l-5.6 0 l0 3.76 c0 3.08 2.04 4.64 5 4.64 c0.36 0 0.68 -0.04 0.96 -0.08 s0.52 -0.08 0.8 -0.12 l0 5.56 c-0.36 0.04 -0.64 0.12 -0.84 0.16 c-0.24 0.04 -0.64 0.04 -1.16 0.04 c-6.04 0 -10.76 -4.12 -10.76 -10.2 l0 -14.8 l6 0 l0 5.48 l5.6 0 z"></path></g></svg>